The Howling Reborn 2011 BRRip x264 Feel-Free

Genre:Horror
Language:English
IMDb:http://www.imdb.com/title/tt1554092/
Source:720p.BluRay Thanks!

Format : MPEG-4
Format profile : Base Media
Codec ID : isom
File size : 1.24 GiB
Duration : 1h 32mn
Overall bit rate : 1 934 Kbps

Video
ID : 1
Format : AVC
Format/Info : Advanced Video Codec
Format profile : High@L4.1
Format settings, CABAC : Yes
Format settings, ReFrames : 3 frames
Codec ID : avc1
Codec ID/Info : Advanced Video Coding
Duration : 1h 32mn
Bit rate mode : Variable
Bit rate : 1 500 Kbps
Maximum bit rate : 8 305 Kbps
Width : 720 pixels
Height : 400 pixels
Display aspect ratio : 16:9
Frame rate mode : Constant
Frame rate : 23.976 fps
Color space : YUV
Chroma subsampling : 4:2:0
Bit depth : 8 bits
Scan type : Progressive
Bits/(Pixel*Frame) : 0.217
Stream size : 979 MiB (77%)
Writing library : x264


Audio
ID : 2
Format : AAC
Format/Info : Advanced Audio Codec
Format version : Version 4
Format profile : LC
Format settings, SBR : No
Codec ID : 40
Duration : 1h 32mn
Bit rate mode : Variable
Bit rate : 444 Kbps
Maximum bit rate : 539 Kbps
Channel(s) : 6 channels
Channel positions : Front: L C R, Side: L R, LFE
Sampling rate : 48.0 KHz
Stream size : 293 MiB (23%)


Plot:
On the eve of his high school graduation, unremarkable Will Kidman finally bonds with the girl he has long yearned for..


Poster:

 
http://shareimage.org/images/5a9c9k0xulvtrcwbqjq6.jpg


Screens:

 
http://shareimage.org/images/dg6pa3fdxbz8y2suo5mo.png
 
http://shareimage.org/images/7qbetat58fkloaev4z7j.png
 
http://shareimage.org/images/b3gxfjeirxmclr2rr.png


ENJOY!